<svg width="161" height="54" viewBox="0 0 161 54" fill="none" xmlns="http://www.w3.org/2000/svg">
<rect width="161" height="54" rx="10" fill="#1E1E2D"/>
<path d="M32.3131 21.352V24.616H36.1531V26.104H32.3131V29.512H36.6331V31H30.4891V19.864H36.6331V21.352H32.3131ZM42.6557 26.536L45.5037 31H43.4397L41.5357 28.008L39.7437 31H37.8397L40.6877 26.664L37.8397 22.184H39.9037L41.8077 25.176L43.5997 22.184H45.5037L42.6557 26.536ZM48.6881 23.48C48.9974 23.0747 49.4187 22.7333 49.9521 22.456C50.4854 22.1787 51.0881 22.04 51.7601 22.04C52.5281 22.04 53.2267 22.232 53.8561 22.616C54.4961 22.9893 54.9974 23.5173 55.3601 24.2C55.7227 24.8827 55.9041 25.6667 55.9041 26.552C55.9041 27.4373 55.7227 28.232 55.3601 28.936C54.9974 29.6293 54.4961 30.1733 53.8561 30.568C53.2267 30.952 52.5281 31.144 51.7601 31.144C51.0881 31.144 50.4907 31.0107 49.9681 30.744C49.4454 30.4667 49.0187 30.1253 48.6881 29.72V35.192H46.8641V22.184H48.6881V23.48ZM54.0481 26.552C54.0481 25.944 53.9201 25.4213 53.6641 24.984C53.4187 24.536 53.0881 24.2 52.6721 23.976C52.2667 23.7413 51.8294 23.624 51.3601 23.624C50.9014 23.624 50.4641 23.7413 50.0481 23.976C49.6427 24.2107 49.3121 24.552 49.0561 25C48.8107 25.448 48.6881 25.976 48.6881 26.584C48.6881 27.192 48.8107 27.7253 49.0561 28.184C49.3121 28.632 49.6427 28.9733 50.0481 29.208C50.4641 29.4427 50.9014 29.56 51.3601 29.56C51.8294 29.56 52.2667 29.4427 52.6721 29.208C53.0881 28.9627 53.4187 28.6107 53.6641 28.152C53.9201 27.6933 54.0481 27.16 54.0481 26.552ZM57.0998 26.552C57.0998 25.6667 57.2811 24.8827 57.6438 24.2C58.0171 23.5173 58.5185 22.9893 59.1478 22.616C59.7878 22.232 60.4918 22.04 61.2598 22.04C61.9531 22.04 62.5558 22.1787 63.0678 22.456C63.5905 22.7227 64.0065 23.0587 64.3158 23.464V22.184H66.1558V31H64.3158V29.688C64.0065 30.104 63.5851 30.4507 63.0518 30.728C62.5185 31.0053 61.9105 31.144 61.2278 31.144C60.4705 31.144 59.7771 30.952 59.1478 30.568C58.5185 30.1733 58.0171 29.6293 57.6438 28.936C57.2811 28.232 57.0998 27.4373 57.0998 26.552ZM64.3158 26.584C64.3158 25.976 64.1878 25.448 63.9318 25C63.6865 24.552 63.3611 24.2107 62.9558 23.976C62.5505 23.7413 62.1131 23.624 61.6438 23.624C61.1745 23.624 60.7371 23.7413 60.3318 23.976C59.9265 24.2 59.5958 24.536 59.3398 24.984C59.0945 25.4213 58.9718 25.944 58.9718 26.552C58.9718 27.16 59.0945 27.6933 59.3398 28.152C59.5958 28.6107 59.9265 28.9627 60.3318 29.208C60.7478 29.4427 61.1851 29.56 61.6438 29.56C62.1131 29.56 62.5505 29.4427 62.9558 29.208C63.3611 28.9733 63.6865 28.632 63.9318 28.184C64.1878 27.7253 64.3158 27.192 64.3158 26.584ZM72.9996 22.04C73.6929 22.04 74.3116 22.184 74.8556 22.472C75.4102 22.76 75.8422 23.1867 76.1516 23.752C76.4609 24.3173 76.6156 25 76.6156 25.8V31H74.8076V26.072C74.8076 25.2827 74.6102 24.68 74.2156 24.264C73.8209 23.8373 73.2822 23.624 72.5996 23.624C71.9169 23.624 71.3729 23.8373 70.9676 24.264C70.5729 24.68 70.3756 25.2827 70.3756 26.072V31H68.5516V22.184H70.3756V23.192C70.6742 22.8293 71.0529 22.5467 71.5116 22.344C71.9809 22.1413 72.4769 22.04 72.9996 22.04ZM82.1422 31.144C81.4489 31.144 80.8249 31.0213 80.2702 30.776C79.7262 30.52 79.2942 30.1787 78.9742 29.752C78.6542 29.3147 78.4835 28.8293 78.4622 28.296H80.3502C80.3822 28.6693 80.5582 28.984 80.8782 29.24C81.2089 29.4853 81.6195 29.608 82.1102 29.608C82.6222 29.608 83.0169 29.512 83.2942 29.32C83.5822 29.1173 83.7262 28.8613 83.7262 28.552C83.7262 28.2213 83.5662 27.976 83.2462 27.816C82.9369 27.656 82.4409 27.48 81.7582 27.288C81.0969 27.1067 80.5582 26.9307 80.1422 26.76C79.7262 26.5893 79.3635 26.328 79.0542 25.976C78.7555 25.624 78.6062 25.16 78.6062 24.584C78.6062 24.1147 78.7449 23.688 79.0222 23.304C79.2995 22.9093 79.6942 22.6 80.2062 22.376C80.7289 22.152 81.3262 22.04 81.9982 22.04C83.0009 22.04 83.8062 22.296 84.4142 22.808C85.0329 23.3093 85.3635 23.9973 85.4062 24.872H83.5822C83.5502 24.4773 83.3902 24.1627 83.1022 23.928C82.8142 23.6933 82.4249 23.576 81.9342 23.576C81.4542 23.576 81.0862 23.6667 80.8302 23.848C80.5742 24.0293 80.4462 24.2693 80.4462 24.568C80.4462 24.8027 80.5315 25 80.7022 25.16C80.8729 25.32 81.0809 25.448 81.3262 25.544C81.5715 25.6293 81.9342 25.7413 82.4142 25.88C83.0542 26.0507 83.5769 26.2267 83.9822 26.408C84.3982 26.5787 84.7555 26.8347 85.0542 27.176C85.3529 27.5173 85.5075 27.9707 85.5182 28.536C85.5182 29.0373 85.3795 29.4853 85.1022 29.88C84.8249 30.2747 84.4302 30.584 83.9182 30.808C83.4169 31.032 82.8249 31.144 82.1422 31.144ZM95.5691 26.376C95.5691 26.7067 95.5477 27.0053 95.5051 27.272H88.7691C88.8224 27.976 89.0837 28.5413 89.5531 28.968C90.0224 29.3947 90.5984 29.608 91.2811 29.608C92.2624 29.608 92.9557 29.1973 93.3611 28.376H95.3291C95.0624 29.1867 94.5771 29.8533 93.8731 30.376C93.1797 30.888 92.3157 31.144 91.2811 31.144C90.4384 31.144 89.6811 30.9573 89.0091 30.584C88.3477 30.2 87.8251 29.6667 87.4411 28.984C87.0677 28.2907 86.8811 27.4907 86.8811 26.584C86.8811 25.6773 87.0624 24.8827 87.4251 24.2C87.7984 23.5067 88.3157 22.9733 88.9771 22.6C89.6491 22.2267 90.4171 22.04 91.2811 22.04C92.1131 22.04 92.8544 22.2213 93.5051 22.584C94.1557 22.9467 94.6624 23.4587 95.0251 24.12C95.3877 24.7707 95.5691 25.5227 95.5691 26.376ZM93.6651 25.8C93.6544 25.128 93.4144 24.5893 92.9451 24.184C92.4757 23.7787 91.8944 23.576 91.2011 23.576C90.5717 23.576 90.0331 23.7787 89.5851 24.184C89.1371 24.5787 88.8704 25.1173 88.7851 25.8H93.6651ZM100.564 31.144C99.8707 31.144 99.2467 31.0213 98.6921 30.776C98.1481 30.52 97.7161 30.1787 97.3961 29.752C97.0761 29.3147 96.9054 28.8293 96.8841 28.296H98.7721C98.8041 28.6693 98.9801 28.984 99.3001 29.24C99.6307 29.4853 100.041 29.608 100.532 29.608C101.044 29.608 101.439 29.512 101.716 29.32C102.004 29.1173 102.148 28.8613 102.148 28.552C102.148 28.2213 101.988 27.976 101.668 27.816C101.359 27.656 100.863 27.48 100.18 27.288C99.5187 27.1067 98.9801 26.9307 98.5641 26.76C98.1481 26.5893 97.7854 26.328 97.4761 25.976C97.1774 25.624 97.0281 25.16 97.0281 24.584C97.0281 24.1147 97.1667 23.688 97.4441 23.304C97.7214 22.9093 98.1161 22.6 98.6281 22.376C99.1507 22.152 99.7481 22.04 100.42 22.04C101.423 22.04 102.228 22.296 102.836 22.808C103.455 23.3093 103.785 23.9973 103.828 24.872H102.004C101.972 24.4773 101.812 24.1627 101.524 23.928C101.236 23.6933 100.847 23.576 100.356 23.576C99.8761 23.576 99.5081 23.6667 99.2521 23.848C98.9961 24.0293 98.8681 24.2693 98.8681 24.568C98.8681 24.8027 98.9534 25 99.1241 25.16C99.2947 25.32 99.5027 25.448 99.7481 25.544C99.9934 25.6293 100.356 25.7413 100.836 25.88C101.476 26.0507 101.999 26.2267 102.404 26.408C102.82 26.5787 103.177 26.8347 103.476 27.176C103.775 27.5173 103.929 27.9707 103.94 28.536C103.94 29.0373 103.801 29.4853 103.524 29.88C103.247 30.2747 102.852 30.584 102.34 30.808C101.839 31.032 101.247 31.144 100.564 31.144Z" fill="white"/>
<path d="M121 31.6667L121 18.3334M121 18.3334L116 23.3334M121 18.3334L126 23.3334" stroke="#FC5039" stroke-width="1.5" stroke-linecap="round" stroke-linejoin="round"/>
</svg>
