<svg width="161" height="54" viewBox="0 0 161 54" fill="none" xmlns="http://www.w3.org/2000/svg">
<rect width="161" height="54" rx="10" fill="#1E1E2D"/>
<path d="M39.5709 19.88V31H37.7469V19.88H39.5709ZM46.4136 22.04C47.107 22.04 47.7256 22.184 48.2696 22.472C48.8243 22.76 49.2563 23.1867 49.5656 23.752C49.875 24.3173 50.0296 25 50.0296 25.8V31H48.2216V26.072C48.2216 25.2827 48.0243 24.68 47.6296 24.264C47.235 23.8373 46.6963 23.624 46.0136 23.624C45.331 23.624 44.787 23.8373 44.3816 24.264C43.987 24.68 43.7896 25.2827 43.7896 26.072V31H41.9656V22.184H43.7896V23.192C44.0883 22.8293 44.467 22.5467 44.9256 22.344C45.395 22.1413 45.891 22.04 46.4136 22.04ZM51.7483 26.584C51.7483 25.6773 51.9296 24.8827 52.2923 24.2C52.6656 23.5067 53.1776 22.9733 53.8283 22.6C54.4789 22.2267 55.2256 22.04 56.0683 22.04C57.1349 22.04 58.0149 22.296 58.7083 22.808C59.4123 23.3093 59.8869 24.0293 60.1323 24.968H58.1643C58.0043 24.5307 57.7483 24.1893 57.3963 23.944C57.0443 23.6987 56.6016 23.576 56.0683 23.576C55.3216 23.576 54.7243 23.8427 54.2763 24.376C53.8389 24.8987 53.6203 25.6347 53.6203 26.584C53.6203 27.5333 53.8389 28.2747 54.2763 28.808C54.7243 29.3413 55.3216 29.608 56.0683 29.608C57.1243 29.608 57.8229 29.144 58.1643 28.216H60.1323C59.8763 29.112 59.3963 29.8267 58.6923 30.36C57.9883 30.8827 57.1136 31.144 56.0683 31.144C55.2256 31.144 54.4789 30.9573 53.8283 30.584C53.1776 30.2 52.6656 29.6667 52.2923 28.984C51.9296 28.2907 51.7483 27.4907 51.7483 26.584ZM65.774 31.144C64.942 31.144 64.19 30.9573 63.518 30.584C62.846 30.2 62.318 29.6667 61.934 28.984C61.55 28.2907 61.358 27.4907 61.358 26.584C61.358 25.688 61.5553 24.8933 61.95 24.2C62.3447 23.5067 62.8833 22.9733 63.566 22.6C64.2487 22.2267 65.0113 22.04 65.854 22.04C66.6967 22.04 67.4593 22.2267 68.142 22.6C68.8247 22.9733 69.3633 23.5067 69.758 24.2C70.1527 24.8933 70.35 25.688 70.35 26.584C70.35 27.48 70.1473 28.2747 69.742 28.968C69.3367 29.6613 68.782 30.2 68.078 30.584C67.3847 30.9573 66.6167 31.144 65.774 31.144ZM65.774 29.56C66.2433 29.56 66.6807 29.448 67.086 29.224C67.502 29 67.838 28.664 68.094 28.216C68.35 27.768 68.478 27.224 68.478 26.584C68.478 25.944 68.3553 25.4053 68.11 24.968C67.8647 24.52 67.5393 24.184 67.134 23.96C66.7287 23.736 66.2913 23.624 65.822 23.624C65.3527 23.624 64.9153 23.736 64.51 23.96C64.1153 24.184 63.8007 24.52 63.566 24.968C63.3313 25.4053 63.214 25.944 63.214 26.584C63.214 27.5333 63.454 28.2693 63.934 28.792C64.4247 29.304 65.038 29.56 65.774 29.56ZM82.8251 22.04C83.5185 22.04 84.1371 22.184 84.6811 22.472C85.2358 22.76 85.6678 23.1867 85.9771 23.752C86.2971 24.3173 86.4571 25 86.4571 25.8V31H84.6491V26.072C84.6491 25.2827 84.4518 24.68 84.0571 24.264C83.6625 23.8373 83.1238 23.624 82.4411 23.624C81.7585 23.624 81.2145 23.8373 80.8091 24.264C80.4145 24.68 80.2171 25.2827 80.2171 26.072V31H78.4091V26.072C78.4091 25.2827 78.2118 24.68 77.8171 24.264C77.4225 23.8373 76.8838 23.624 76.2011 23.624C75.5185 23.624 74.9745 23.8373 74.5691 24.264C74.1745 24.68 73.9771 25.2827 73.9771 26.072V31H72.1531V22.184H73.9771V23.192C74.2758 22.8293 74.6545 22.5467 75.1131 22.344C75.5718 22.1413 76.0625 22.04 76.5851 22.04C77.2891 22.04 77.9185 22.1893 78.4731 22.488C79.0278 22.7867 79.4545 23.2187 79.7531 23.784C80.0198 23.2507 80.4358 22.8293 81.0011 22.52C81.5665 22.2 82.1745 22.04 82.8251 22.04ZM96.8581 26.376C96.8581 26.7067 96.8368 27.0053 96.7941 27.272H90.0581C90.1115 27.976 90.3728 28.5413 90.8421 28.968C91.3115 29.3947 91.8875 29.608 92.5701 29.608C93.5515 29.608 94.2448 29.1973 94.6501 28.376H96.6181C96.3515 29.1867 95.8661 29.8533 95.1621 30.376C94.4688 30.888 93.6048 31.144 92.5701 31.144C91.7275 31.144 90.9701 30.9573 90.2981 30.584C89.6368 30.2 89.1141 29.6667 88.7301 28.984C88.3568 28.2907 88.1701 27.4907 88.1701 26.584C88.1701 25.6773 88.3515 24.8827 88.7141 24.2C89.0875 23.5067 89.6048 22.9733 90.2661 22.6C90.9381 22.2267 91.7061 22.04 92.5701 22.04C93.4021 22.04 94.1435 22.2213 94.7941 22.584C95.4448 22.9467 95.9515 23.4587 96.3141 24.12C96.6768 24.7707 96.8581 25.5227 96.8581 26.376ZM94.9541 25.8C94.9435 25.128 94.7035 24.5893 94.2341 24.184C93.7648 23.7787 93.1835 23.576 92.4901 23.576C91.8608 23.576 91.3221 23.7787 90.8741 24.184C90.4261 24.5787 90.1595 25.1173 90.0741 25.8H94.9541Z" fill="white"/>
<path d="M121 18.3333V31.6666M121 31.6666L126 26.6666M121 31.6666L116 26.6666" stroke="#1FAA47" stroke-width="1.5" stroke-linecap="round" stroke-linejoin="round"/>
</svg>
