<svg width="24" height="24" viewBox="0 0 24 24" fill="none" xmlns="http://www.w3.org/2000/svg">
<path d="M13.7679 10.2321C14.7442 11.2084 14.7442 12.7913 13.7679 13.7676C12.7916 14.744 11.2087 14.744 10.2324 13.7676C9.25604 12.7913 9.25604 11.2084 10.2324 10.2321C11.2087 9.2558 12.7916 9.2558 13.7679 10.2321" stroke="#8B8B94" stroke-width="1.5" stroke-linecap="round" stroke-linejoin="round"/>
<path fill-rule="evenodd" clip-rule="evenodd" d="M14.849 4.11995L15.432 4.31395C15.966 4.49195 16.327 4.99195 16.327 5.55496V6.39195C16.327 7.10395 16.895 7.68495 17.607 7.69995L18.445 7.71796C18.93 7.72796 19.37 8.00696 19.587 8.44096L19.862 8.99095C20.114 9.49495 20.015 10.103 19.617 10.501L19.025 11.093C18.522 11.596 18.513 12.409 19.005 12.923L19.585 13.529C19.921 13.88 20.035 14.387 19.881 14.848L19.687 15.431C19.509 15.965 19.009 16.326 18.446 16.326H17.609C16.897 16.326 16.316 16.894 16.301 17.606L16.283 18.444C16.273 18.929 15.994 19.369 15.56 19.586L15.01 19.861C14.506 20.113 13.898 20.014 13.5 19.616L12.908 19.024C12.405 18.521 11.592 18.512 11.078 19.004L10.472 19.584C10.121 19.92 9.61403 20.034 9.15303 19.88L8.57003 19.686C8.03603 19.508 7.67503 19.008 7.67503 18.445V17.608C7.67503 16.896 7.10703 16.315 6.39503 16.3L5.55703 16.282C5.07203 16.272 4.63203 15.993 4.41503 15.559L4.14003 15.009C3.88803 14.505 3.98703 13.897 4.38503 13.499L4.97703 12.907C5.48003 12.404 5.48903 11.591 4.99703 11.077L4.41703 10.471C4.08003 10.119 3.96603 9.61096 4.12003 9.15096L4.31403 8.56796C4.49203 8.03396 4.99203 7.67296 5.55503 7.67296H6.39203C7.10403 7.67296 7.68503 7.10496 7.70003 6.39296L7.71803 5.55496C7.73003 5.06995 8.00803 4.62995 8.44203 4.41295L8.99203 4.13795C9.49603 3.88595 10.104 3.98495 10.502 4.38295L11.094 4.97495C11.597 5.47795 12.41 5.48696 12.924 4.99496L13.53 4.41495C13.881 4.07995 14.389 3.96595 14.849 4.11995V4.11995Z" stroke="#8B8B94" stroke-width="1.5" stroke-linecap="round" stroke-linejoin="round"/>
</svg>
